<svg id="visual" viewBox="0 0 900 600" width="900" height="600" xmlns="http://www.w3.org/2000/svg" xmlns:xlink="http://www.w3.org/1999/xlink" version="1.1"><rect x="0" y="0" width="900" height="600" fill="#CCCCCC"></rect><path d="M0 389L21.5 399.5C43 410 86 431 128.8 447.5C171.7 464 214.3 476 257.2 480.8C300 485.7 343 483.3 385.8 475.3C428.7 467.3 471.3 453.7 514.2 447.3C557 441 600 442 642.8 432.8C685.7 423.7 728.3 404.3 771.2 394.3C814 384.3 857 383.7 878.5 383.3L900 383L900 601L878.5 601C857 601 814 601 771.2 601C728.3 601 685.7 601 642.8 601C600 601 557 601 514.2 601C471.3 601 428.7 601 385.8 601C343 601 300 601 257.2 601C214.3 601 171.7 601 128.8 601C86 601 43 601 21.5 601L0 601Z" fill="#002233" stroke-linecap="round" stroke-linejoin="miter"></path></svg>